<svg width="30" height="25" viewBox="0 0 30 25" fill="none" xmlns="http://www.w3.org/2000/svg">
<path d="M6.20683 4.48243C5.55678 4.48122 4.923 4.65856 4.39648 4.98898C4.43686 5.00774 4.47352 5.03195 4.50511 5.0607L14.8292 14.0083L15.4551 14.5507C16.0609 15.0751 17.0424 15.0751 17.6482 14.5507L18.2741 14.0083L28.5982 5.0607C28.6298 5.03195 28.6665 5.00774 28.7068 4.98898C28.1803 4.65856 27.5465 4.48122 26.8965 4.48243H6.20683Z" fill="white"/>
<path d="M3.77068 5.69765C3.7375 5.67028 3.70956 5.6385 3.68792 5.60352C3.30666 6.05983 3.10204 6.6091 3.10343 7.17248V21.5173C3.1001 22.074 3.30117 22.6172 3.67757 23.0683C3.69877 23.0356 3.72486 23.0055 3.75516 22.9787L13.7276 14.327L3.77068 5.69765Z" fill="white"/>
<path d="M18.6413 14.9639L18.3827 15.188C17.3696 16.0606 15.7337 16.0606 14.7206 15.188L14.462 14.9639L4.4844 23.6111C4.45272 23.6417 4.41394 23.6661 4.37061 23.6828C4.90091 24.0255 5.54533 24.2096 6.20681 24.2073H26.8965C27.5579 24.2096 28.2024 24.0255 28.7327 23.6828C28.6893 23.6661 28.6506 23.6417 28.6189 23.6111L18.6413 14.9639Z" fill="white"/>
<path d="M29.3328 5.69765L19.3759 14.327L29.3483 22.9787C29.3786 23.0055 29.4047 23.0356 29.4259 23.0683C29.8023 22.6172 30.0033 22.074 30 21.5173V7.17248C30.0014 6.6091 29.7968 6.05983 29.4155 5.60352C29.3939 5.6385 29.3659 5.67028 29.3328 5.69765Z" fill="white"/>
<path d="M4.02935 4.12902L0.667286 1.21523C0.634107 1.18786 0.606171 1.15608 0.584527 1.12109C0.203274 1.57741 -0.00134528 2.12668 4.42689e-05 2.69006V17.0349C-0.00341333 17.5895 0.195751 18.1309 0.56901 18.5814C0.590207 18.5487 0.616294 18.5186 0.646596 18.4918L2.06901 17.259V7.17282C2.06888 5.93217 2.81084 4.78015 4.02935 4.12902Z" fill="white"/>
<path d="M1.26758 19.2002C1.51098 19.3583 1.78151 19.4823 2.0693 19.5677V18.5322L1.38137 19.1284C1.34694 19.1563 1.30873 19.1803 1.26758 19.2002Z" fill="white"/>
<path d="M3.10344 8.23871e-05C2.45338 -0.00112189 1.81961 0.176215 1.29309 0.506634C1.33346 0.525392 1.37013 0.549604 1.40171 0.578358L5.04309 3.73422C5.42028 3.63466 5.81259 3.58479 6.20688 3.58629H22.0241L25.4948 0.578358C25.5264 0.549604 25.5631 0.525392 25.6034 0.506634C25.0769 0.176215 24.4431 -0.00112189 23.7931 8.23871e-05H3.10344Z" fill="white"/>
<path d="M26.2294 1.21523L23.4932 3.58661H26.8966L26.8966 2.69006C26.898 2.12668 26.6934 1.57741 26.3121 1.12109C26.2905 1.15608 26.2625 1.18786 26.2294 1.21523Z" fill="white"/>
</svg>
