<svg width="28" height="28" viewBox="0 0 28 28" fill="none" xmlns="http://www.w3.org/2000/svg">
<path d="M13.6172 0C9.91939 0 9.45522 0.0166598 8.00294 0.0845592C6.55338 0.152878 5.5639 0.388776 4.6982 0.734993C3.80254 1.09255 3.0429 1.57092 2.28613 2.34932C1.52867 3.12757 1.06341 3.90862 0.714568 4.82911C0.376891 5.7195 0.147189 6.73729 0.0819682 8.22702C0.0170199 9.72038 0 10.1978 0 14C0 17.8022 0.0163392 18.2779 0.0822406 19.7712C0.148959 21.2616 0.378389 22.279 0.71484 23.1691C1.06286 24.09 1.52812 24.871 2.28517 25.6491C3.04181 26.428 3.80145 26.9075 4.69643 27.265C5.56282 27.6112 6.55243 27.8471 8.00171 27.9154C9.45413 27.9833 9.91789 28 13.6156 28C17.3138 28 17.7765 27.9833 19.2288 27.9154C20.6783 27.8471 21.6689 27.6112 22.5353 27.265C23.4305 26.9075 24.1891 26.428 24.9456 25.6491C25.7031 24.871 26.1682 24.09 26.5172 23.1695C26.8518 22.279 27.0817 21.2613 27.1497 19.7714C27.215 18.2782 27.232 17.8022 27.232 14C27.232 10.1978 27.215 9.72066 27.1497 8.2273C27.0817 6.73687 26.8518 5.71964 26.5172 4.82953C26.1682 3.90862 25.7031 3.12757 24.9456 2.34932C24.1883 1.57064 23.4308 1.09227 22.5345 0.735133C21.6665 0.388776 20.6764 0.152738 19.2269 0.0845592C17.7745 0.0166598 17.3121 0 13.613 0H13.6172ZM12.3957 2.52291C12.7583 2.52235 13.1629 2.52291 13.6172 2.52291C17.2528 2.52291 17.6836 2.53635 19.1193 2.60341C20.4469 2.66585 21.1674 2.89391 21.6474 3.08557C22.2828 3.33925 22.7359 3.64262 23.2121 4.13276C23.6887 4.62275 23.9836 5.08937 24.231 5.74274C24.4174 6.23554 24.6395 6.97641 24.7 8.3414C24.7652 9.81726 24.7793 10.2605 24.7793 13.9968C24.7793 17.7331 24.7652 18.1764 24.7 19.6522C24.6392 21.0171 24.4174 21.758 24.231 22.251C23.9843 22.9043 23.6887 23.3695 23.2121 23.8593C22.7356 24.3493 22.2831 24.6525 21.6474 24.9063C21.168 25.0988 20.4469 25.3263 19.1193 25.3887C17.6839 25.4558 17.2528 25.4704 13.6172 25.4704C9.98148 25.4704 9.55053 25.4558 8.11527 25.3887C6.78771 25.3257 6.06715 25.0977 5.58678 24.906C4.95146 24.6522 4.4975 24.349 4.02094 23.859C3.54438 23.369 3.24946 22.9035 3.00205 22.2498C2.81565 21.7569 2.59357 21.016 2.53312 19.651C2.4679 18.1752 2.45483 17.7319 2.45483 13.9933C2.45483 10.2546 2.4679 9.81376 2.53312 8.3379C2.59385 6.97291 2.81565 6.23204 3.00205 5.73854C3.24891 5.08517 3.54438 4.61855 4.02108 4.12856C4.49777 3.63856 4.95146 3.33519 5.58692 3.08095C6.06688 2.88845 6.78771 2.66095 8.11527 2.59823C9.37134 2.53985 9.85812 2.52235 12.3957 2.51941V2.52291ZM20.8854 4.84745C19.9834 4.84745 19.2515 5.59924 19.2515 6.52688C19.2515 7.45437 19.9834 8.20686 20.8854 8.20686C21.7875 8.20686 22.5194 7.45437 22.5194 6.52688C22.5194 5.59938 21.7875 4.84689 20.8854 4.84689V4.84745ZM13.6172 6.81037C9.75572 6.81037 6.62486 10.0295 6.62486 14C6.62486 17.9705 9.75572 21.1881 13.6172 21.1881C17.4789 21.1881 20.6086 17.9705 20.6086 14C20.6086 10.0296 17.4786 6.81037 13.6169 6.81037H13.6172ZM13.6172 9.33329C16.1238 9.33329 18.156 11.4225 18.156 14C18.156 16.5772 16.1238 18.6667 13.6172 18.6667C11.1107 18.6667 9.0786 16.5772 9.0786 14C9.0786 11.4225 11.1105 9.33329 13.6172 9.33329Z" fill="white"/>
</svg>
